# xmcd CD database file
#
# Track frame offsets:
#	150
#	14206
#	28341
#	49037
#	71631
#	87313
#	104018
#	118918
#	138023
#	154175
#	166928
#	187363
#	206691
#	229751
#	246812
#	265325
#	286886
#	307730
#	326936
#	343484
#
# Disc length: 4768 seconds
#
# Revision: 0
# Processed by: cddbd v1.5.2PL0 Copyright (c) Steve Scherf et al.
# Submitted via: CDex 1.51
#
DISCID=3a129e14
DTITLE=Michael Bublé - Call me irresponible
DYEAR=2007
DGENRE=Jazz
TTITLE0=01 The best is yet to come
TTITLE1=02 It had better be tonight
TTITLE2=03 Me and Mrs. Jones
TTITLE3=04 I´m your man
TTITLE4=05 Comi´n home baby
TTITLE5=06 Lost
TTITLE6=07 Call me irresponsible
TTITLE7=08 Wonderful tonight duet
TTITLE8=09 Everything
TTITLE9=10 I´ve got the world on a string
TTITLE10=11 Always on my mind
TTITLE11=12 That´s life
TTITLE12=13 Dream
TTITLE13=14 Home
TTITLE14=15 You´ll never find another love like mine
TTITLE15=16 Quando, quando, quando
TTITLE16=17 Kissing a fool
TTITLE17=18 You don´t know me
TTITLE18=19 Save the last dance for me
TTITLE19=20 Sway
EXTD=YEAR: 2007
EXTT0=
EXTT1=
EXTT2=
EXTT3=
EXTT4=
EXTT5=
EXTT6=
EXTT7=
EXTT8=
EXTT9=
EXTT10=
EXTT11=
EXTT12=
EXTT13=
EXTT14=
EXTT15=
EXTT16=
EXTT17=
EXTT18=
EXTT19=
PLAYORDER=
